# xmcd
#
# Track frame offsets:
# 150
# 28274
# 48090
# 59281
# 81192
# 111636
# 129506
# 150680
# 177811
# 209142
#
# Disc length: 3005 seconds
#
# Revision: 1
# Processed by: cddbd v1.5.2PL0 Copyright (c) Steve Scherf et al.
# Submitted via: CedeCatalogueitor 2.6.0.6 http://personales.ya.com/cdcatalogueitor
#
DISCID=8d0bbb0a
DTITLE=Carne Lovers - Hot
DYEAR=2006
DGENRE=
TTITLE0=Hot
TTITLE1=All Over The Moon
TTITLE2=Brick and Gun
TTITLE3=Left Foot Day
TTITLE4=You, Me And The Country Moon
TTITLE5=Denial
TTITLE6=Speed Child
TTITLE7=John's Scape
TTITLE8=Sweet Mongolia
TTITLE9=The Double Fingerpicker
EXTD=
EXTT0=
EXTT1=
EXTT2=
EXTT3=
EXTT4=
EXTT5=
EXTT6=
EXTT7=
EXTT8=
EXTT9=
PLAYORDER=
